<?xml version="1.0" encoding="UTF-8" standalone="no"?>
<svg
   width="1024"
   height="1024"
   viewBox="0 0 1024 1024"
   version="1.1"
   id="svg15"
   sodipodi:docname="logo.svg"
   inkscape:version="1.4.3 (1:1.4.3+202512261034+0d15f75042)"
   inkscape:export-filename="logo.png"
   inkscape:export-xdpi="96"
   inkscape:export-ydpi="96"
   xmlns:inkscape="http://www.inkscape.org/namespaces/inkscape"
   xmlns:sodipodi="http://sodipodi.sourceforge.net/DTD/sodipodi-0.dtd"
   xmlns="http://www.w3.org/2000/svg"
   xmlns:svg="http://www.w3.org/2000/svg">
  <defs
     id="defs15" />
  <sodipodi:namedview
     id="namedview15"
     pagecolor="#ffffff"
     bordercolor="#666666"
     borderopacity="1.0"
     inkscape:showpageshadow="2"
     inkscape:pageopacity="0.0"
     inkscape:pagecheckerboard="0"
     inkscape:deskcolor="#d1d1d1"
     inkscape:zoom="0.55726092"
     inkscape:cx="463.87606"
     inkscape:cy="682.80403"
     inkscape:window-width="1850"
     inkscape:window-height="1016"
     inkscape:window-x="70"
     inkscape:window-y="27"
     inkscape:window-maximized="1"
     inkscape:current-layer="svg15" />
  <rect
     style="fill:#ffffff;stroke-width:14.5997;stroke-linecap:round;stroke-linejoin:round;paint-order:stroke fill markers;stroke:none;fill-opacity:1"
     id="rect1"
     width="1024"
     height="1024"
     x="5.6843419e-14"
     y="0"
     ry="114.48689" />
  <g
     id="g15"
     transform="matrix(1.2210698,0,0,1.2210698,-112.85054,-111.05552)">
    <path
       fill="#914631"
       transform="scale(2)"
       d="m 182.876,53.7612 133.134,0.0116 c 11.4,-0.0116 26.685,-2.0521 26.734,14.9596 0.045,15.1531 -0.107,30.3404 0.023,45.4946 0.143,16.605 -6.548,19.706 -22.123,19.57 l -61.392,-0.027 v 43.841 l 106.014,-0.018 c 13.398,-0.012 28.319,0.088 31.973,17.203 1.067,4.996 0.532,10.925 0.524,16.079 l -0.012,25.372 c 40.859,-0.109 43.295,12.135 43.822,49.815 0.18,12.826 0.962,23.464 -8.494,33.499 -10.625,11.276 -21.384,9.047 -35.328,9.226 v 37.158 c 13.414,0.762 28.43,-3.378 38.948,6.282 10.232,9.397 7.431,30.279 7.219,43.445 -0.189,11.755 2.525,24.547 -6.588,33.689 -10.174,10.208 -39.992,6.601 -54.29,6.513 -17.381,-0.107 -37.969,1.963 -37.99,-22.269 l 0.01,-31.716 c 0.013,-26.303 2.019,-35.977 30.925,-35.965 l 14.869,0.021 -0.007,-24.596 c -0.007,-3.86 -0.234,-8.859 0.007,-12.562 l -12.325,0.027 c -17.407,0.017 -32.639,-8.625 -32.733,-28.105 l 0.072,-19.967 c -0.126,-37.204 8.438,-44.561 44.986,-44.495 l 0.006,-24.398 c 0.023,-23.075 -0.783,-27.411 -25.079,-27.367 L 259.252,184.5 v 32.962 c 0,5.89 -0.137,12.056 0,17.91 2.582,0.361 6.29,0.169 8.944,0.017 20.335,-1.166 36.488,8.906 36.548,31.005 l 0.004,21.218 c 0.056,26.252 -4.798,41.2 -33.291,41.186 l -12.205,-0.011 c 0.924,9.022 0.325,27.918 0,37.158 l 15.581,-0.035 c 28.946,-0.076 30.914,11.404 30.907,37.315 l 0.002,31.286 c -1.995,21.529 -17.905,21.413 -33.829,21.361 l -37.077,0.005 c -13.458,0.009 -28.389,-4.459 -28.337,-21.148 l 0.061,-37.745 c 0.005,-9.191 -0.889,-16.948 5.911,-24.125 9.538,-10.067 27.162,-6.654 40.524,-6.914 v -37.158 c -13.812,-0.115 -26.194,2.428 -36.699,-8.075 -5.89,-5.888 -8.993,-12.828 -9.061,-21.204 l 0.004,-21.129 c -0.06,-35.958 10.212,-43.152 45.195,-43.007 V 184.5 l -106.166,-0.019 c -23.267,-0.021 -24.942,1.857 -24.904,25.3 l 0.021,25.591 10.399,-0.052 c 13.17,-0.041 22.392,4.566 29.643,15.796 5.856,9.068 4.972,16.995 4.944,27.304 l 0.067,19.27 c -0.033,9.24 -2.773,16.226 -9.346,22.906 -10.091,10.253 -22.323,8.234 -35.707,8.191 0.203,3.428 0.018,8.887 0.016,12.445 l -0.016,24.713 15.02,-0.03 c 15.044,-0.129 30.878,3.46 30.815,22.214 -0.044,13.142 1.443,38.843 -0.719,50.651 -1.888,9.5 -11.547,17.16 -21.103,17.122 -15.07,-0.033 -30.131,-0.065 -45.203,-0.031 -17.0416,0.038 -32.7626,-2.972 -32.8965,-24.116 l 0.04,-26.753 c -0.0615,-27.952 0.861,-39.172 31.503,-39.07 l 15.9165,0.013 0.003,-24.365 c 0.01,-4.232 0.229,-8.601 -0.003,-12.793 -13.475,-0.021 -24.2937,2.117 -35.1864,-8.041 -11.7239,-10.933 -9.0698,-23.004 -9.2007,-37.586 -0.0772,-8.586 -0.9707,-18.092 1.9425,-26.278 7.4605,-20.964 24.3095,-21.096 41.9236,-21.51 l -0.025,-24.842 c -0.014,-26.25 3.175,-32.98 30.507,-32.937 l 107.715,0.018 V 133.77 l -68.529,0.058 c -14.678,-0.896 -14.178,-13.897 -14.169,-24.933 L 169.732,75.45 c -0.04,-10.9844 0.602,-18.1421 13.144,-21.6888 z"
       id="path1"
       style="stroke:#914631;stroke-opacity:1;stroke-width:4.09477001;stroke-dasharray:none" />
    <path
       fill="#a8b858"
       transform="scale(2)"
       d="m 176.54,79.1214 c -0.145,-21.6234 2.557,-18.418 21.673,-18.414 l 123.959,0.0062 c 18.242,-0.307 13.812,8.4021 13.78,24.5897 l 0.043,31.4187 c -0.084,14.219 -15.228,10.441 -26.343,10.442 l -124.76,0.029 c -4.336,0.013 -8.295,-3.274 -8.33,-7.72 -0.102,-13.386 -0.549,-26.9793 -0.022,-40.3516 z"
       id="path2" />
    <path
       fill="#98a951"
       transform="scale(2)"
       d="m 322.172,60.7136 c 18.242,-0.307 13.812,8.4021 13.78,24.5897 l 0.043,31.4187 c -0.084,14.219 -15.228,10.441 -26.343,10.442 l -124.76,0.029 c -4.336,0.013 -8.295,-3.274 -8.33,-7.72 -0.102,-13.386 -0.549,-26.9793 -0.022,-40.3516 0.163,1.0409 0.021,8.5378 0.019,10.122 l -0.019,24.6596 117.78,0.02 c 31.531,-0.041 28.281,-30.2439 27.852,-53.2094 z"
       id="path3" />
    <path
       fill="#e7cfc3"
       transform="scale(2)"
       d="m 143.374,372.767 c 9.671,-0.144 17.258,5.975 17.194,16.093 -0.062,9.726 0.042,19.467 -0.019,29.209 -0.138,21.997 2.093,31.02 -23.331,31.131 l -44.2961,0.02 c -9.638,0.067 -18.1968,-5.434 -18.8739,-15.703 -0.4462,-14.084 0.2868,-28.655 0.0534,-42.782 -0.3257,-19.708 16.4671,-17.96 30.9476,-17.957 z"
       id="path4" />
    <path
       fill="#bba096"
       transform="scale(2)"
       d="m 143.374,372.767 c 9.671,-0.144 17.258,5.975 17.194,16.093 -0.062,9.726 0.042,19.467 -0.019,29.209 -0.138,21.997 2.093,31.02 -23.331,31.131 l -44.2961,0.02 c -9.638,0.067 -18.1968,-5.434 -18.8739,-15.703 3.142,0.216 6.6332,0.047 9.8256,0.015 l 14.173,-0.028 c 14.5034,-0.004 32.8194,2.637 42.5214,-11.034 11.016,-15.52 5.511,-33.176 2.806,-49.703 z"
       id="path5" />
    <path
       fill="#e7cfc3"
       transform="scale(2)"
       d="m 246.117,372.767 26.977,-0.017 c 19.829,-10e-4 26.265,2.267 25.961,23.905 -0.03,8.925 1.354,34.123 -0.812,41.78 -2.701,9.203 -10.882,10.766 -19.072,10.771 -16.443,0.003 -32.883,0.047 -49.328,-0.031 -18.905,-0.09 -16.414,-16.049 -16.408,-29.656 l -0.013,-22.688 c -0.005,-2.326 -0.347,-7.33 0.009,-9.352 -0.124,-17.757 21.217,-14.758 32.686,-14.712 z"
       id="path6" />
    <path
       fill="#bba096"
       transform="scale(2)"
       d="m 246.117,372.767 26.977,-0.017 c 19.829,-10e-4 26.265,2.267 25.961,23.905 -0.03,8.925 1.354,34.123 -0.812,41.78 -2.701,9.203 -10.882,10.766 -19.072,10.771 -16.443,0.003 -32.883,0.047 -49.328,-0.031 -18.905,-0.09 -16.414,-16.049 -16.408,-29.656 l -0.013,-22.688 c -0.005,-2.326 -0.347,-7.33 0.009,-9.352 0.249,2.152 0.016,11.429 0.014,14.264 l -0.014,31.774 25.649,0.011 c 13.144,-0.001 22.893,0.906 34.164,-8.231 17.788,-14.421 12.924,-35.116 4.09,-52.336 l -0.097,-0.194 -21.667,0.014 c -2.246,0.007 -7.619,0.257 -9.453,-0.014 z"
       id="path7" />
    <path
       fill="#e7cfc3"
       transform="scale(2)"
       d="m 368.873,372.767 c 17.035,-0.307 34.203,0.289 51.25,-0.028 10.795,-0.201 17.098,7.903 17.136,18.222 0.044,11.855 1.253,34.686 -0.328,45.776 -1.689,11.844 -13.414,12.509 -22.485,12.495 L 365.49,449.2 c -8.57,-0.046 -13.975,-7.715 -13.96,-15.683 l 0.019,-43.451 c 0.096,-11.414 6.246,-16.697 17.324,-17.299 z"
       id="path8" />
    <path
       fill="#bba096"
       transform="scale(2)"
       d="m 368.873,372.767 c 17.035,-0.307 34.203,0.289 51.25,-0.028 10.795,-0.201 17.098,7.903 17.136,18.222 0.044,11.855 1.253,34.686 -0.328,45.776 -1.689,11.844 -13.414,12.509 -22.485,12.495 L 365.49,449.2 c -8.57,-0.046 -13.975,-7.715 -13.96,-15.683 l 0.358,0.255 c 13.727,-0.238 33.036,0.816 46.033,-0.827 24.926,-3.152 34.692,-30.342 25.94,-51.069 -1.471,-3.482 -3.829,-5.943 -5.366,-9.109 l -34.915,-0.011 c -3.14,-0.005 -12.216,0.314 -14.707,0.011 z"
       id="path9" />
    <path
       fill="#a8b858"
       transform="scale(2)"
       d="m 214.728,305.596 c -1.43,-4.902 -1.176,-34.141 -0.661,-41.518 0.76,-10.894 10.565,-21.027 21.491,-21.739 9.356,-0.609 41.719,-1.332 48.942,1.855 16.267,6.714 13.553,22.916 13.586,37.256 0.015,6.793 0.254,14.298 -0.222,20.965 -1.66,23.209 -28.554,19.656 -44.327,19.685 l -12.456,0.046 c -12.098,0.063 -22.554,-3.198 -26.353,-16.55 z"
       id="path10" />
    <path
       fill="#98a951"
       transform="scale(2)"
       d="m 284.5,244.194 c 16.267,6.714 13.553,22.916 13.586,37.256 0.015,6.793 0.254,14.298 -0.222,20.965 -1.66,23.209 -28.554,19.656 -44.327,19.685 l -12.456,0.046 c -12.098,0.063 -22.554,-3.198 -26.353,-16.55 1.796,0.224 4.404,0.038 6.269,0.027 l 27.186,0.006 c 47.626,0.287 34.673,-27.729 36.317,-61.435 z"
       id="path11" />
    <path
       fill="#be7d69"
       transform="scale(2)"
       d="m 77.238,304.987 c -0.233,-1.596 -0.0108,-12.319 -0.0053,-14.479 l 0.0098,-14.802 c -0.0255,-16.055 4.3255,-32.715 24.3895,-33.412 12.926,-0.452 34.943,-2.156 46.113,3.915 13.413,10.606 12.2,20.51 12.004,36.319 -0.348,10.364 1.716,21.904 -5.171,30.695 -9.917,12.658 -30.099,8.713 -44.891,8.904 -16.9127,0.218 -23.9878,-0.37 -32.449,-17.14 z"
       id="path12" />
    <path
       fill="#a66d54"
       transform="scale(2)"
       d="m 147.745,246.209 c 13.413,10.606 12.2,20.51 12.004,36.319 -0.348,10.364 1.716,21.904 -5.171,30.695 -9.917,12.658 -30.099,8.713 -44.891,8.904 -16.9127,0.218 -23.9878,-0.37 -32.449,-17.14 l 21.7232,0.008 c 13.4058,-10e-4 23.9278,0.479 36.0358,-6.614 21.326,-12.492 8.647,-35.598 12.748,-52.172 z"
       id="path13" />
    <path
       fill="#be7d69"
       transform="scale(2)"
       d="m 352.38,305.596 c -0.144,-0.83 -0.016,-9.823 -0.012,-11.491 l 0.002,-17.864 c -10e-4,-15.429 2.171,-32.367 22.398,-33.345 8.14,0.253 36.282,-0.946 40.538,1.298 4.986,-0.23 7.373,1.399 11.094,4.554 11.091,9.403 8.03,24.741 8.361,37.59 0.253,9.821 1.272,20.544 -6.057,28.046 -9.947,10.775 -26.371,7.459 -40.001,7.722 -16.357,0.317 -29.096,1.609 -36.323,-16.51 z"
       id="path14"
       inkscape:label="path14" />
    <path
       fill="#a66d54"
       transform="scale(2)"
       d="m 415.306,244.194 c 4.986,-0.23 7.373,1.399 11.094,4.554 11.091,9.403 8.03,24.741 8.361,37.59 0.253,9.821 1.272,20.544 -6.057,28.046 -9.947,10.775 -26.371,7.459 -40.001,7.722 -16.357,0.317 -29.096,1.609 -36.323,-16.51 l 26.094,0.014 c 15.106,0.002 28.507,1.115 38.468,-12.397 8.14,-10.532 10.32,-40.143 -1.636,-49.019 z"
       id="path15" />
  </g>
</svg>
